<svg xmlns="http://www.w3.org/2000/svg" width="225" height="86" viewBox="0 0 225 86">
  <g fill="none" fill-rule="evenodd">
    <rect width="225" height="87" y="-1"/>
    <path fill="#000" fill-rule="nonzero" d="M29.2446237,4.577 L4.78548387,4.577 L4.78548387,63.986 L47.9704301,63.986 L47.9704301,23.207 L29.2446237,23.207 L29.2446237,4.577 Z M33.822043,7.79716427 L33.822043,18.653 L44.7337059,18.653 L33.822043,7.79716427 Z M0.208064516,0.023 L32.4813479,0.023 L52.5478495,19.9868357 L52.5478495,68.54 L0.208064516,68.54 L0.208064516,0.023 Z M10.3107542,35.1669991 L25.2913989,42.1589989 C25.2913989,44.7043322 25.2913989,45.9769988 25.2913989,45.9769988 C25.2913989,45.9769988 10.3107542,53.5899986 10.3107542,53.5899986 C10.3107542,53.5899986 10.3107542,48.5759986 10.3107542,48.5759986 C10.3107542,48.5759986 13.6243742,47.0733323 20.2516141,44.0679989 L10.3107542,40.180999 L10.3107542,35.1669991 Z M71.8829095,41.0409712 C67.4601366,41.0409712 64.2028242,38.1570926 64.2028242,33.7272174 C64.2028242,29.2973422 67.4601366,26.4134637 71.8829095,26.4134637 C73.8253434,26.4134637 75.3792904,26.8891551 76.8734705,27.7513455 L75.020687,31.3487609 C74.1839463,30.8136083 73.317322,30.5163012 72.0920943,30.5163012 C70.2990785,30.5163012 68.7152479,31.6757987 68.7152479,33.7272174 C68.7152479,35.7786361 70.2990785,36.9381337 72.0920943,36.9381337 C73.317322,36.9381337 74.1839463,36.6408266 75.020687,36.1056739 L76.8734705,39.7030893 C75.3792904,40.5652798 73.8253434,41.0409712 71.8829095,41.0409712 Z M84.7926243,26.4134637 C89.2751639,26.4134637 92.5623599,29.3270729 92.5623599,33.7272174 C92.5623599,38.1273619 89.2751639,41.0409712 84.7926243,41.0409712 C80.3399678,41.0409712 77.0527718,38.1273619 77.0527718,33.7272174 C77.0527718,29.3270729 80.3399678,26.4134637 84.7926243,26.4134637 Z M84.7926243,30.5163012 C82.999608,30.5163012 81.5651955,31.7649908 81.5651955,33.7272174 C81.5651955,35.689444 82.999608,36.9381337 84.7926243,36.9381337 C86.6155237,36.9381337 88.0200526,35.689444 88.0200526,33.7272174 C88.0200526,31.7649908 86.6155237,30.5163012 84.7926243,30.5163012 Z M100.361979,41.0409711 C96.775947,41.0409711 93.8174707,38.5435918 93.8174707,33.7272174 C93.8174707,28.910843 96.775947,26.4134637 100.361979,26.4134637 C102.603249,26.4134637 104.007778,27.3351156 104.874402,28.7324588 L104.93417,28.7324588 L104.93417,20.8839986 L109.446593,20.8839986 L109.446593,40.5950105 L104.93417,40.5950105 L104.93417,38.721976 L104.874402,38.721976 C104.007778,40.1193192 102.603249,41.0409711 100.361979,41.0409711 Z M101.61709,36.9381337 C103.43999,36.9381337 104.814635,35.689444 104.814635,33.7272174 C104.814635,31.7649908 103.43999,30.5163012 101.61709,30.5163012 C99.8240742,30.5163012 98.4494289,31.7649908 98.4494289,33.7272174 C98.4494289,35.689444 99.8240742,36.9381337 101.61709,36.9381337 Z M118.357709,26.4431944 C122.511529,26.4431944 125.201053,28.8216509 125.201053,33.7866788 L125.201053,34.7975228 L115.309582,34.7975228 C115.608418,36.5219038 116.983064,37.2949022 118.835847,37.2949022 C120.509328,37.2949022 121.973625,36.6110959 122.840249,36.0462125 L124.483847,39.435513 C123.01955,40.3274342 121.136884,41.0409712 118.77608,41.0409712 C114.144121,41.0409712 111.066111,38.1570926 111.066111,33.7866788 C111.066111,29.1486887 114.114238,26.4431944 118.357709,26.4431944 Z M118.208291,29.62438 C116.684228,29.62438 115.548651,30.3676476 115.339465,32.15149 L120.838048,32.15149 C120.778281,30.5460319 119.672587,29.62438 118.208291,29.62438 Z M71.8829095,62.2009714 C67.4601366,62.2009714 64.2028242,59.3170925 64.2028242,54.8872175 C64.2028242,50.457342 67.4601366,47.5734636 71.8829095,47.5734636 C73.8253434,47.5734636 75.3792904,48.0491551 76.8734705,48.9113455 L75.020687,52.5087608 C74.1839463,51.9736083 73.317322,51.6763011 72.0920943,51.6763011 C70.2990785,51.6763011 68.7152479,52.8357987 68.7152479,54.8872175 C68.7152479,56.9386362 70.2990785,58.0981339 72.0920943,58.0981339 C73.317322,58.0981339 74.1839463,57.8008267 75.020687,57.2656737 L76.8734705,60.8630894 C75.3792904,61.7252799 73.8253434,62.2009714 71.8829095,62.2009714 Z M84.7926243,47.5734636 C89.2751639,47.5734636 92.5623599,50.4870728 92.5623599,54.8872175 C92.5623599,59.2873617 89.2751639,62.2009714 84.7926243,62.2009714 C80.3399678,62.2009714 77.0527718,59.2873617 77.0527718,54.8872175 C77.0527718,50.4870728 80.3399678,47.5734636 84.7926243,47.5734636 Z M84.7926243,51.6763011 C82.999608,51.6763011 81.5651955,52.9249909 81.5651955,54.8872175 C81.5651955,56.8494441 82.999608,58.0981339 84.7926243,58.0981339 C86.6155237,58.0981339 88.0200526,56.8494441 88.0200526,54.8872175 C88.0200526,52.9249909 86.6155237,51.6763011 84.7926243,51.6763011 Z M103.146957,47.5734636 C106.195085,47.5734636 108.346703,49.3275756 108.346703,53.2520288 L108.346703,61.7550106 L103.864164,61.7550106 L103.864164,54.5007181 C103.864164,52.4492994 102.997539,51.5276475 101.324057,51.5276475 C99.7999942,51.5276475 98.6644173,52.4195686 98.6644173,54.8574868 L98.6644173,61.7550106 L94.1519941,61.7550106 L94.1519941,48.0194244 L98.5747665,48.0194244 L98.5747665,50.1005739 L98.6345337,50.1005739 C99.5908089,48.4951154 101.204524,47.5734636 103.146957,47.5734636 Z M115.733756,62.2009714 C113.910856,62.2009714 111.579936,61.814472 109.488084,60.7738973 L111.191449,57.0872898 C112.685629,57.9494803 114.388994,58.6630171 116.092359,58.6630171 C116.899216,58.6630171 117.34747,58.4846328 117.34747,58.0386724 C117.34747,57.5035195 116.809565,57.4143273 116.391195,57.2359434 L113.970623,56.2845609 C111.69947,55.42237 110.593777,54.0844885 110.593777,52.0330697 C110.593777,49.2086527 112.536211,47.5734636 116.51073,47.5734636 C118.064676,47.5734636 119.738158,47.8410401 121.501291,48.4059233 L120.246179,52.0330697 C118.781883,51.4384553 117.257819,51.0222257 116.152126,51.0222257 C115.255618,51.0222257 115.046433,51.2600715 115.046433,51.6168397 C115.046433,52.0330697 115.405036,52.2114541 116.092359,52.4790301 L118.483047,53.3709512 C120.574899,54.1439499 121.83001,55.2439861 121.83001,57.5629809 C121.83001,60.8333587 119.409439,62.2009714 115.733756,62.2009714 Z M123.533375,67.7028051 L123.533375,48.0194009 L128.045799,48.0194244 L128.045799,49.8924588 L128.105566,49.8924588 C128.97219,48.4951154 130.406603,47.5734636 132.617989,47.5734636 C136.204021,47.5734636 139.162497,50.0708431 139.162497,54.8872175 C139.162497,59.7035918 136.204021,62.2009714 132.617989,62.2009714 C130.406603,62.2009714 128.97219,61.2793191 128.105566,59.8819761 L128.045799,59.8819761 L128.045799,67.7011518 L123.533375,67.7028051 Z M131.362878,58.0981339 C133.155894,58.0981339 134.530539,56.8494441 134.530539,54.8872175 C134.530539,52.9249909 133.155894,51.6763011 131.362878,51.6763011 C129.539978,51.6763011 128.165333,52.9249909 128.165333,54.8872175 C128.165333,56.8494441 129.539978,58.0981339 131.362878,58.0981339 Z M140.782015,61.7550106 L140.782015,48.0194244 L145.294438,48.0194244 L145.294438,61.7550106 L140.782015,61.7550106 Z M156.775544,47.6031943 L156.775544,52.0925312 L156.387057,52.0925312 C153.368814,52.0925312 152.143586,53.1925674 152.143586,56.7007905 L152.143586,61.7550106 L147.631163,61.7550106 L147.631163,48.0194244 L152.053935,48.0194244 L152.053935,50.8141107 L152.113703,50.8141107 C152.92056,48.5545769 154.50439,47.6031943 156.685893,47.6031943 L156.775544,47.6031943 Z M164.993534,47.6031943 C169.147354,47.6031943 171.836878,49.981651 171.836878,54.9466789 L171.836878,55.9575229 L161.945407,55.9575229 C162.244243,57.6819038 163.618888,58.454902 165.471671,58.454902 C167.145153,58.454902 168.609449,57.7710959 169.476073,57.2062123 L171.119672,60.595513 C169.655375,61.4874341 167.772708,62.2009709 165.411904,62.2009709 C160.779946,62.2009709 157.701935,59.3170925 157.701935,54.9466789 C157.701935,50.3086889 160.750063,47.6031943 164.993534,47.6031943 Z M164.844116,50.78438 C163.320052,50.78438 162.184476,51.5276475 161.97529,53.3114898 L167.473872,53.3114898 C167.414105,51.7060318 166.308412,50.78438 164.844116,50.78438 Z M150.14232,31.8130594 C148.916029,33.8860861 147.936927,35.3701332 146.922439,36.6382253 L146.878152,36.6935837 L149.851062,40.675104 L144.878522,40.675104 L143.976534,39.4486936 L143.902672,39.498607 C142.31089,40.5742857 140.563573,41.1113454 138.51742,41.1113454 C133.849258,41.1113454 130.863329,38.6019258 130.863329,34.1362353 C130.863329,31.1527654 132.492545,28.8383354 135.299205,28.0006452 L135.408187,27.9681179 L135.353903,27.8686328 C134.833788,26.9154285 134.575833,25.9182174 134.575833,24.9751667 C134.575833,22.3340515 136.413127,20.7920014 139.832874,20.7920014 C141.31243,20.7920014 142.969178,21.0922432 144.600132,21.603737 L143.51281,25.2373385 C142.103991,24.7962548 141.194173,24.5923392 140.446753,24.5923392 C139.555294,24.5923392 139.09729,24.9380123 139.09729,25.6731529 C139.09729,26.099002 139.294077,26.5243159 139.728676,27.1229904 L144.260502,33.1733116 L144.336233,33.2744181 L144.4099,33.1718127 C145.066113,32.2578148 145.746092,31.1751426 146.589635,29.7257507 L150.14232,31.8130595 L150.14232,31.8130594 Z M138.429723,36.9620145 C139.467012,36.9620145 140.4204,36.6847579 141.342067,36.1345866 L141.429904,36.0821544 L137.714482,31.1437474 L137.618023,31.1096237 C136.128039,31.4802138 135.18016,32.5638709 135.18016,33.9908215 C135.18016,35.8316637 136.459396,36.9620145 138.429723,36.9620145 Z M24.644086,54.372 L41.9827957,54.372 L41.9827957,58.926 L24.644086,58.926 L24.644086,54.372 Z" transform="translate(0 2)"/>
  </g>
</svg>
