<svg width="500" height="461" xmlns="http://www.w3.org/2000/svg"><path d="M20 43c6 0 12 4 16 10l13 22c1 1 27 48 35 57 4 5 10 8 16 8h91c25 0 32 29 33 29l25 79 12-29c32-87 37-86 67-87h82c30 1 35 1 67 87l21 54s8 17-9 25c-16 8-25-12-25-12l-30-76-2-2-1 3v220c1 7-2 15-7 20-5 6-12 9-20 9-7 0-15-3-20-8-5-6-8-14-8-21v-88s1-13-8-13c-10 0-8 13-8 13v88c0 7-3 15-8 21-5 5-12 8-20 8-7 0-14-3-20-8-5-6-8-14-7-21V211l-2-2-2 1-32 85s-2 6-6 11c-2 4-5 8-11 10-10 2-20-4-23-14l-32-105s-2-6-7-5c-5 2-4 8-3 9l37 141h-29v91c0 9-5 17-12 22-7 6-16 7-24 4-11-4-19-15-18-27v-87-3h-17v91c0 15-12 27-26 27-15 0-27-12-27-27v-91H41l30-104 2-12v-15c0-4-1-9-3-13h-1L2 72l-2-9c0-11 9-20 20-20zM141 1c30 0 55 25 55 56s-25 57-55 57-55-26-55-57 25-56 55-56zm207 3c21-8 44-4 59 12 16 16 20 40 12 61s-28 34-50 34c-14 0-28-5-38-16a56 56 0 01-16-39c0-23 13-43 33-52z" fill="#e5253b" fill-rule="nonzero"/></svg>