<svg width="500" height="609" xmlns="http://www.w3.org/2000/svg"><path d="M177 147c33 4 58 32 59 65v136a19 19 0 01-38 0h-1V231c0-4-3-10-9-10s-7 6-7 10v350c0 15-12 28-28 28-15 0-27-13-27-28V379l-2-6-6-2-6 2-2 6v202c-1 15-13 26-28 26-14 0-26-11-27-26V231c0-4-2-10-7-10-8 0-10 6-10 10v117c0 11-8 19-19 19-10 0-19-8-19-19V212c0-33 26-61 59-65zm264 15c33 2 59 30 59 62v131c0 10-8 19-19 19-10 0-18-9-18-19V243c0-4-4-10-9-10s-7 6-7 9v337c-1 14-12 24-26 24s-26-10-27-24V385c0-2 0-4-2-6l-5-2-6 2-2 6v194c0 15-12 26-26 26-15 0-27-11-27-26V242c0-3 1-9-7-9s-9 6-9 10v112c-1 10-9 17-18 17-10 0-18-7-19-17V224c0-32 25-59 57-62zM385 30c31 0 56 25 56 56s-25 56-56 56c-32 0-57-25-57-56s25-56 57-56zM139 61c8-4 12-1 16 3l1 1 18 16c-4 29-28 50-57 49-28 0-52-22-55-50 9 1 19 0 28-2 12-2 24-5 35-10l14-7zm294-23c1-8 9-17 26-9 20 10 18 40 18 40l-1 3c-2-5-7-12-24-14l-10-4c-2-4-5-9-9-12v-4zm-122-9c17-8 26 1 26 9v3c-5 4-8 9-11 14l-8 3c-17 2-22 9-24 14l-1-3s-2-30 18-40zM88 11c14-11 33-14 49-8 6 3 5 8 13 7 5-1 9 1 12 5 9 11 15 25 17 38l-1 15-4-2-15-12-5-4-5-3c-4 0-8 0-12 2l-17 7a127 127 0 01-58 13c-7 0-12-4-10-8 8-20 20-37 36-50z" fill="#949494" fill-rule="nonzero"/></svg>