<svg xmlns="http://www.w3.org/2000/svg" width="225" height="86" viewBox="0 0 225 86">
  <g fill="none" fill-rule="evenodd">
    <rect width="225" height="86"/>
    <g fill="#000" fill-rule="nonzero" transform="translate(0 18)">
      <g transform="translate(109.58 59.903)">
        <g transform="translate(7.186)">
          <g transform="translate(0 1.331)">
            <polygon points="1.662 1.464 0 1.464 0 .311 4.716 .311 4.716 1.464 3.054 1.464 3.054 5.902 1.662 5.902"/>
            <path d="M5.47904192.266233766L8.03892216.266233766C8.39820359.266233766 8.66766467.310606061 8.93712575.399350649 9.20658683.488095238 9.38622754.621212121 9.56586826.798701299 9.74550898.976190476 9.88023952 1.15367965 9.97005988 1.37554113 10.0598802 1.5974026 10.1047904 1.86363636 10.1047904 2.12987013 10.1047904 2.48484848 10.0149701 2.83982684 9.83532934 3.10606061 9.65568862 3.37229437 9.38622754 3.59415584 9.07185629 3.72727273L10.3742515 5.90151515 8.80239521 5.90151515 7.63473054 3.9047619 6.82634731 3.9047619 6.82634731 5.90151515 5.38922156 5.90151515 5.38922156.266233766 5.47904192.266233766zM7.9491018 2.79545455C8.21856287 2.79545455 8.39820359 2.75108225 8.53293413 2.61796537 8.66766467 2.48484848 8.75748503 2.30735931 8.75748503 2.12987013 8.75748503 1.90800866 8.66766467 1.73051948 8.53293413 1.64177489 8.39820359 1.50865801 8.21856287 1.46428571 7.9491018 1.46428571L6.87125749 1.46428571 6.87125749 2.83982684 7.9491018 2.83982684 7.9491018 2.79545455zM13.6077844 6.03463203C13.1586826 6.03463203 12.7994012 5.94588745 12.4401198 5.81277056 12.0808383 5.67965368 11.8113772 5.45779221 11.5419162 5.19155844 11.3173653 4.92532468 11.0928144 4.61471861 11.002994 4.25974026 10.8682635 3.9047619 10.8233533 3.50541126 10.8233533 3.10606061 10.8233533 2.70670996 10.8682635 2.30735931 11.002994 1.95238095 11.1377246 1.5974026 11.3173653 1.28679654 11.5419162 1.02056277 11.7664671.754329004 12.0808383.576839827 12.4401198.399350649 12.7994012.266233766 13.1586826.177489177 13.6077844.177489177 14.0568862.177489177 14.4161677.266233766 14.7754491.399350649 15.1347305.532467532 15.4041916.754329004 15.6736527 1.02056277 15.8982036 1.28679654 16.1227545 1.5974026 16.257485 1.95238095 16.3922156 2.30735931 16.4371257 2.70670996 16.4371257 3.10606061 16.4371257 3.50541126 16.3922156 3.9047619 16.257485 4.25974026 16.1227545 4.61471861 15.9431138 4.92532468 15.6736527 5.19155844 15.4491018 5.45779221 15.1347305 5.63528139 14.7754491 5.81277056 14.4161677 5.94588745 14.011976 6.03463203 13.6077844 6.03463203zM13.6077844 4.88095238C13.8323353 4.88095238 14.0568862 4.83658009 14.1916168 4.7478355 14.3712575 4.65909091 14.505988 4.52597403 14.6407186 4.39285714 14.7754491 4.21536797 14.8652695 4.03787879 14.9101796 3.81601732 14.9550898 3.59415584 15 3.37229437 15 3.10606061 15 2.83982684 14.9550898 2.61796537 14.9101796 2.3961039 14.8652695 2.17424242 14.7754491 1.99675325 14.6407186 1.81926407 14.505988 1.64177489 14.3712575 1.50865801 14.1916168 1.41991342 14.011976 1.33116883 13.8323353 1.28679654 13.6077844 1.28679654 13.3832335 1.28679654 13.1586826 1.33116883 13.0239521 1.41991342 12.8443114 1.50865801 12.7095808 1.64177489 12.5748503 1.81926407 12.4401198 1.99675325 12.3502994 2.17424242 12.3053892 2.3961039 12.260479 2.61796537 12.2155689 2.83982684 12.2155689 3.10606061 12.2155689 3.37229437 12.260479 3.59415584 12.3053892 3.81601732 12.3502994 4.03787879 12.4401198 4.21536797 12.5748503 4.39285714 12.7095808 4.57034632 12.8443114 4.65909091 13.0239521 4.7478355 13.1586826 4.83658009 13.3832335 4.88095238 13.6077844 4.88095238z"/>
            <polygon points="17.156 .266 18.548 .266 18.548 4.703 21.108 4.703 21.108 5.857 17.156 5.857"/>
            <polygon points="21.826 .266 23.219 .266 23.219 4.703 25.778 4.703 25.778 5.857 21.826 5.857"/>
            <path d="M26.497006.266233766L29.2365269.266233766C29.5508982.266233766 29.7754491.310606061 30 .354978355 30.2245509.443722944 30.4041916.532467532 30.5389222.621212121 30.8532934.887445887 31.0329341 1.24242424 31.0329341 1.68614719 31.0329341 1.95238095 30.9431138 2.21861472 30.8083832 2.3961039 30.6736527 2.57359307 30.494012 2.70670996 30.2245509 2.79545455L30.2245509 2.83982684C30.5389222 2.92857143 30.7634731 3.10606061 30.988024 3.32792208 31.1676647 3.54978355 31.257485 3.86038961 31.257485 4.21536797 31.257485 4.48160173 31.2125749 4.7478355 31.1227545 4.96969697 31.0329341 5.19155844 30.8982036 5.36904762 30.6736527 5.5021645 30.3143713 5.76839827 29.8652695 5.90151515 29.2814371 5.90151515L26.497006 5.90151515 26.497006.266233766zM29.011976 2.48484848C29.1916168 2.48484848 29.3712575 2.44047619 29.505988 2.3517316 29.6407186 2.26298701 29.6856287 2.12987013 29.6856287 1.95238095 29.6856287 1.77489177 29.6407186 1.64177489 29.505988 1.5530303 29.3712575 1.46428571 29.2365269 1.41991342 29.011976 1.41991342L27.8443114 1.41991342 27.8443114 2.52922078 29.011976 2.52922078 29.011976 2.48484848zM29.1467066 4.7478355C29.3712575 4.7478355 29.5508982 4.7034632 29.6856287 4.57034632 29.8203593 4.43722944 29.8652695 4.30411255 29.8652695 4.08225108 29.8652695 3.86038961 29.7754491 3.68290043 29.6407186 3.59415584 29.505988 3.46103896 29.3263473 3.41666667 29.1017964 3.41666667L27.8443114 3.41666667 27.8443114 4.7478355 29.1467066 4.7478355zM33.5928144.266233766L35.0299401.266233766 37.0958084 5.85714286 35.6137725 5.85714286 35.2994012 4.83658009 33.3233533 4.83658009 33.008982 5.85714286 31.6167665 5.85714286 33.5928144.266233766zM34.9401198 3.86038961L34.491018 2.48484848C34.4461078 2.3961039 34.4461078 2.3517316 34.4011976 2.26298701 34.3562874 2.17424242 34.3562874 2.08549784 34.3113772 1.99675325 34.2664671 1.90800866 34.2664671 1.81926407 34.2215569 1.68614719 34.1766467 1.77489177 34.1766467 1.86363636 34.1317365 1.99675325 34.0868263 2.08549784 34.0868263 2.17424242 34.0419162 2.26298701 33.997006 2.3517316 33.997006 2.44047619 33.9520958 2.48484848L33.502994 3.86038961 34.9401198 3.86038961zM39.8802395 5.99025974C39.4760479 5.99025974 39.0718563 5.90151515 38.757485 5.76839827 38.3982036 5.63528139 38.1287425 5.41341991 37.8592814 5.14718615 37.6347305 4.88095238 37.4101796 4.57034632 37.2754491 4.21536797 37.1407186 3.86038961 37.0508982 3.46103896 37.0508982 3.06168831 37.0508982 2.66233766 37.0958084 2.26298701 37.2305389 1.90800866 37.3652695 1.5530303 37.5449102 1.24242424 37.8143713.976190476 38.0389222.70995671 38.3532934.488095238 38.7125749.354978355 39.0718563.221861472 39.4311377.133116883 39.8802395.133116883 40.1946108.133116883 40.508982.177489177 40.7784431.266233766 41.0479042.354978355 41.2724551.488095238 41.497006.621212121 41.7664671.798701299 41.9461078 1.02056277 42.0808383 1.28679654 42.2155689 1.5530303 42.3053892 1.86363636 42.3502994 2.17424242L40.9580838 2.17424242C40.9131737 1.90800866 40.8233533 1.73051948 40.5988024 1.5530303 40.4191617 1.37554113 40.1497006 1.28679654 39.8802395 1.28679654 39.6556886 1.28679654 39.4311377 1.33116883 39.2964072 1.41991342 39.1167665 1.50865801 38.9820359 1.64177489 38.8922156 1.77489177 38.8023952 1.95238095 38.7125749 2.12987013 38.6227545 2.3517316 38.5778443 2.57359307 38.5329341 2.79545455 38.5329341 3.06168831 38.5329341 3.32792208 38.5778443 3.54978355 38.6227545 3.77164502 38.6676647 3.99350649 38.757485 4.17099567 38.8922156 4.34848485 39.0269461 4.52597403 39.1616766 4.61471861 39.3413174 4.7034632 39.5209581 4.79220779 39.7005988 4.83658009 39.9251497 4.83658009 40.239521 4.83658009 40.508982 4.7478355 40.6886228 4.57034632 40.8682635 4.39285714 41.002994 4.17099567 41.0479042 3.9047619L42.4401198 3.9047619C42.4401198 4.17099567 42.3502994 4.43722944 42.2155689 4.7034632 42.0808383 4.96969697 41.9461078 5.14718615 41.7215569 5.32467532 41.497006 5.5465368 41.2275449 5.67965368 40.9580838 5.81277056 40.6437126 5.94588745 40.2844311 5.99025974 39.8802395 5.99025974z"/>
            <polygon points="43.069 .266 44.461 .266 44.461 2.307 46.392 .266 48.054 .266 45.898 2.529 48.189 5.902 46.572 5.902 44.955 3.461 44.461 3.949 44.461 5.857 43.069 5.857 43.069 .266"/>
            <path d="M59.3263473 5.99025974C58.9221557 5.99025974 58.5179641 5.90151515 58.2035928 5.76839827 57.8443114 5.63528139 57.5748503 5.41341991 57.3053892 5.14718615 57.0808383 4.88095238 56.8562874 4.57034632 56.7215569 4.21536797 56.5868263 3.86038961 56.497006 3.46103896 56.497006 3.06168831 56.497006 2.66233766 56.5419162 2.26298701 56.6766467 1.90800866 56.8113772 1.5530303 56.991018 1.24242424 57.260479.976190476 57.4850299.70995671 57.7994012.488095238 58.1586826.354978355 58.5179641.221861472 58.8772455.133116883 59.3263473.133116883 59.6407186.133116883 59.9550898.177489177 60.2245509.266233766 60.494012.354978355 60.7185629.488095238 60.9431138.621212121 61.2125749.798701299 61.3922156 1.02056277 61.5269461 1.28679654 61.6616766 1.5530303 61.751497 1.86363636 61.7964072 2.17424242L60.4041916 2.17424242C60.3592814 1.90800866 60.2694611 1.73051948 60.0449102 1.5530303 59.8652695 1.37554113 59.5958084 1.28679654 59.3263473 1.28679654 59.1017964 1.28679654 58.8772455 1.33116883 58.742515 1.41991342 58.5628743 1.50865801 58.4281437 1.64177489 58.3383234 1.77489177 58.248503 1.95238095 58.1586826 2.12987013 58.0688623 2.3517316 58.0239521 2.57359307 57.9790419 2.79545455 57.9790419 3.06168831 57.9790419 3.32792208 58.0239521 3.54978355 58.0688623 3.77164502 58.1137725 3.99350649 58.2035928 4.17099567 58.3383234 4.34848485 58.4730539 4.52597403 58.6077844 4.61471861 58.7874251 4.7034632 58.9670659 4.79220779 59.1467066 4.83658009 59.3712575 4.83658009 59.6856287 4.83658009 59.9550898 4.7478355 60.1347305 4.57034632 60.3143713 4.39285714 60.4491018 4.17099567 60.494012 3.9047619L61.8862275 3.9047619C61.8862275 4.17099567 61.7964072 4.43722944 61.6616766 4.7034632 61.5269461 4.96969697 61.3922156 5.14718615 61.1676647 5.32467532 60.9431138 5.5465368 60.6736527 5.67965368 60.4041916 5.81277056 60.0449102 5.94588745 59.6856287 5.99025974 59.3263473 5.99025974zM65.0748503 6.03463203C64.6257485 6.03463203 64.2664671 5.94588745 63.9071856 5.81277056 63.5479042 5.67965368 63.2784431 5.45779221 63.008982 5.19155844 62.7844311 4.92532468 62.5598802 4.61471861 62.4700599 4.25974026 62.3353293 3.9047619 62.2904192 3.50541126 62.2904192 3.10606061 62.2904192 2.70670996 62.3353293 2.30735931 62.4700599 1.95238095 62.6047904 1.5974026 62.7844311 1.28679654 63.008982 1.02056277 63.2335329.754329004 63.5479042.576839827 63.9071856.399350649 64.2664671.266233766 64.6257485.177489177 65.0748503.177489177 65.5239521.177489177 65.8832335.266233766 66.242515.399350649 66.6017964.532467532 66.8712575.754329004 67.1407186 1.02056277 67.3652695 1.28679654 67.5898204 1.5974026 67.7245509 1.95238095 67.8592814 2.30735931 67.9041916 2.70670996 67.9041916 3.10606061 67.9041916 3.50541126 67.8592814 3.9047619 67.7245509 4.25974026 67.5898204 4.61471861 67.4101796 4.92532468 67.1407186 5.19155844 66.9161677 5.45779221 66.6017964 5.63528139 66.242515 5.81277056 65.8832335 5.94588745 65.4790419 6.03463203 65.0748503 6.03463203zM65.0748503 4.88095238C65.2994012 4.88095238 65.5239521 4.83658009 65.6586826 4.7478355 65.8383234 4.65909091 65.9730539 4.52597403 66.1077844 4.39285714 66.242515 4.21536797 66.3323353 4.03787879 66.3772455 3.81601732 66.4221557 3.59415584 66.4670659 3.37229437 66.4670659 3.10606061 66.4670659 2.83982684 66.4221557 2.61796537 66.3772455 2.3961039 66.3323353 2.17424242 66.242515 1.99675325 66.1077844 1.81926407 65.9730539 1.64177489 65.8383234 1.50865801 65.6586826 1.41991342 65.4790419 1.33116883 65.2994012 1.28679654 65.0748503 1.28679654 64.8502994 1.28679654 64.6257485 1.33116883 64.491018 1.41991342 64.3113772 1.50865801 64.1766467 1.64177489 64.0419162 1.81926407 63.9071856 1.99675325 63.8173653 2.17424242 63.7724551 2.3961039 63.7275449 2.61796537 63.6826347 2.83982684 63.6826347 3.10606061 63.6826347 3.37229437 63.7275449 3.59415584 63.7724551 3.81601732 63.8173653 4.03787879 63.9071856 4.21536797 64.0419162 4.39285714 64.1766467 4.57034632 64.3113772 4.65909091 64.491018 4.7478355 64.6706587 4.83658009 64.8502994 4.88095238 65.0748503 4.88095238zM68.6227545.266233766L70.508982.266233766 71.1826347 2.70670996C71.2275449 2.79545455 71.2275449 2.92857143 71.2724551 3.06168831 71.3173653 3.19480519 71.3622754 3.32792208 71.3622754 3.46103896 71.4071856 3.63852814 71.4520958 3.77164502 71.497006 3.9491342 71.5419162 3.77164502 71.5868263 3.59415584 71.6317365 3.46103896 71.6766467 3.32792208 71.6766467 3.19480519 71.7215569 3.06168831 71.7664671 2.92857143 71.8113772 2.79545455 71.8113772 2.70670996L72.5299401.266233766 74.4161677.266233766 74.4161677 5.85714286 73.1137725 5.85714286 73.1137725 3.01731602C73.1137725 2.97294372 73.1137725 2.88419913 73.1137725 2.75108225 73.1137725 2.61796537 73.1137725 2.48484848 73.1137725 2.3961039 73.1137725 2.26298701 73.1137725 2.08549784 73.1137725 1.90800866 73.0688623 2.08549784 73.0239521 2.21861472 73.0239521 2.3517316 72.9790419 2.48484848 72.9790419 2.57359307 72.9341317 2.70670996 72.8892216 2.83982684 72.8892216 2.88419913 72.8443114 2.97294372L72.0359281 5.85714286 70.9580838 5.85714286 70.1497006 2.97294372C70.1497006 2.92857143 70.1047904 2.83982684 70.0598802 2.70670996 70.0149701 2.57359307 70.0149701 2.48484848 69.9700599 2.3517316 69.9251497 2.21861472 69.9251497 2.08549784 69.8802395 1.90800866 69.8802395 2.08549784 69.8802395 2.21861472 69.8802395 2.3961039 69.8802395 2.52922078 69.8802395 2.66233766 69.8802395 2.75108225 69.8802395 2.88419913 69.8802395 2.97294372 69.8802395 3.01731602L69.8802395 5.81277056 68.6227545 5.81277056 68.6227545.266233766zM75.4491018.266233766L78.008982.266233766C78.3682635.266233766 78.6377246.310606061 78.9071856.399350649 79.1766467.488095238 79.3562874.621212121 79.5359281.798701299 79.7155689.976190476 79.8502994 1.15367965 79.9401198 1.41991342 80.0299401 1.64177489 80.0748503 1.90800866 80.0748503 2.17424242 80.0748503 2.44047619 80.0299401 2.70670996 79.9401198 2.92857143 79.8502994 3.1504329 79.7155689 3.32792208 79.5359281 3.50541126 79.3562874 3.68290043 79.1766467 3.81601732 78.9071856 3.9047619 78.6826347 3.99350649 78.4131737 4.03787879 78.0988024 4.03787879L76.7964072 4.03787879 76.7964072 5.90151515 75.4491018 5.90151515 75.4491018.266233766zM77.9191617 2.92857143C78.1886228 2.92857143 78.3682635 2.83982684 78.502994 2.70670996 78.6377246 2.57359307 78.7275449 2.3961039 78.7275449 2.17424242 78.7275449 1.95238095 78.6377246 1.77489177 78.502994 1.64177489 78.3682635 1.50865801 78.1886228 1.46428571 77.9191617 1.46428571L76.8862275 1.46428571 76.8862275 2.92857143 77.9191617 2.92857143zM81.7365269.266233766L83.1736527.266233766 85.239521 5.85714286 83.757485 5.85714286 83.4431138 4.83658009 81.4670659 4.83658009 81.1526946 5.85714286 79.760479 5.85714286 81.7365269.266233766zM83.0838323 3.86038961L82.6347305 2.48484848C82.5898204 2.3961039 82.5898204 2.3517316 82.5449102 2.26298701 82.5 2.17424242 82.5 2.08549784 82.4550898 1.99675325 82.4101796 1.90800866 82.4101796 1.81926407 82.3652695 1.68614719 82.3203593 1.77489177 82.3203593 1.86363636 82.2754491 1.99675325 82.2305389 2.08549784 82.2305389 2.17424242 82.1856287 2.26298701 82.1407186 2.3517316 82.1407186 2.44047619 82.0958084 2.48484848L81.6467066 3.86038961 83.0838323 3.86038961zM85.8233533.266233766L87.2155689.266233766 88.8772455 3.06168831C88.8772455 3.10606061 88.9221557 3.1504329 88.9670659 3.23917749 89.011976 3.32792208 89.0568862 3.41666667 89.1017964 3.46103896 89.1467066 3.54978355 89.1916168 3.63852814 89.2814371 3.77164502 89.2814371 3.63852814 89.2814371 3.50541126 89.2814371 3.41666667 89.2814371 3.32792208 89.2814371 3.23917749 89.2814371 3.10606061 89.2814371 3.01731602 89.2814371 2.92857143 89.2814371 2.88419913L89.2814371.221861472 90.6736527.221861472 90.6736527 5.81277056 89.2814371 5.81277056 87.6197605 3.01731602C87.5748503 2.97294372 87.5748503 2.92857143 87.5299401 2.83982684 87.4850299 2.75108225 87.4401198 2.66233766 87.3952096 2.57359307 87.3502994 2.48484848 87.3053892 2.3517316 87.2155689 2.26298701 87.2155689 2.3961039 87.2155689 2.52922078 87.2155689 2.66233766 87.2155689 2.75108225 87.2155689 2.88419913 87.2155689 2.97294372 87.2155689 3.06168831 87.2155689 3.1504329 87.2155689 3.19480519L87.2155689 5.81277056 85.8233533 5.81277056 85.8233533.266233766zM93.1886228 3.81601732L91.257485.266233766 92.7844311.266233766 93.502994 1.73051948C93.5479042 1.81926407 93.5928144 1.90800866 93.6377246 2.04112554 93.6826347 2.12987013 93.7275449 2.21861472 93.7724551 2.30735931 93.8173653 2.3961039 93.8622754 2.48484848 93.9071856 2.57359307 93.9520958 2.48484848 93.997006 2.3961039 94.0419162 2.30735931 94.0868263 2.21861472 94.1317365 2.12987013 94.1766467 2.04112554 94.2215569 1.95238095 94.2664671 1.86363636 94.3113772 1.73051948L95.0299401.266233766 96.511976.266233766 94.5808383 3.81601732 94.5808383 5.90151515 93.1886228 5.90151515 93.1886228 3.81601732z"/>
          </g>
          <polygon points="49.087 3.86 51.377 3.86 51.377 1.642 52.5 1.642 52.5 3.86 54.746 3.86 54.746 4.925 52.5 4.925 52.5 7.233 51.377 7.233 51.377 4.925 49.087 4.925"/>
          <path d="M33.4580838 1.15367965C33.7724551 1.15367965 33.997006.887445887 33.997006.576839827 33.997006.266233766 33.7275449.0443722944 33.4580838.0443722944 33.1437126.0443722944 32.8742515.310606061 32.8742515.576839827 32.8742515.931818182 33.1437126 1.15367965 33.4580838 1.15367965M35.1197605 1.15367965C35.4341317 1.15367965 35.7035928.887445887 35.7035928.576839827 35.7035928.266233766 35.4341317.0443722944 35.1197605.0443722944 34.8053892.0443722944 34.5359281.310606061 34.5359281.576839827 34.5808383.931818182 34.8053892 1.15367965 35.1197605 1.15367965"/>
        </g>
        <g transform="translate(0 3.106)">
          <path d="M1.70658683 4.17099567C1.48203593 4.17099567 1.30239521 4.12662338 1.16766467 4.03787879 1.03293413 3.9491342.898203593 3.86038961.808383234 3.72727273L.808383234 4.08225108.0449101796 4.08225108.0449101796 0 .853293413 0 .853293413 1.50865801C.943113772 1.37554113 1.03293413 1.28679654 1.16766467 1.19805195 1.30239521 1.10930736 1.48203593 1.06493506 1.66167665 1.06493506 1.84131737 1.06493506 2.02095808 1.10930736 2.15568862 1.19805195 2.33532934 1.28679654 2.47005988 1.37554113 2.55988024 1.50865801 2.6497006 1.64177489 2.73952096 1.81926407 2.82934132 1.99675325 2.8742515 2.17424242 2.91916168 2.3961039 2.91916168 2.61796537 2.91916168 2.83982684 2.8742515 3.06168831 2.82934132 3.28354978 2.78443114 3.46103896 2.69461078 3.63852814 2.55988024 3.77164502 2.47005988 3.9047619 2.33532934 3.99350649 2.15568862 4.08225108 2.06586826 4.12662338 1.88622754 4.17099567 1.70658683 4.17099567zM1.52694611 3.50541126C1.75149701 3.50541126 1.88622754 3.41666667 1.9760479 3.28354978 2.06586826 3.10606061 2.15568862 2.88419913 2.15568862 2.61796537 2.15568862 2.3517316 2.11077844 2.12987013 1.9760479 1.95238095 1.88622754 1.77489177 1.70658683 1.68614719 1.48203593 1.68614719 1.34730539 1.68614719 1.25748503 1.73051948 1.16766467 1.77489177 1.07784431 1.81926407.988023952 1.90800866.943113772 1.95238095.898203593 2.04112554.853293413 2.12987013.808383234 2.26298701.763473054 2.3961039.763473054 2.48484848.763473054 2.66233766.763473054 2.92857143.808383234 3.1504329.943113772 3.32792208 1.07784431 3.50541126 1.30239521 3.50541126 1.52694611 3.50541126zM3.32335329 4.43722944L3.59281437 4.43722944C3.77245509 4.43722944 3.86227545 4.39285714 3.95209581 4.34848485 3.99700599 4.25974026 4.04191617 4.17099567 4.04191617 4.03787879 4.04191617 3.99350649 4.04191617 3.9491342 4.04191617 3.9047619 4.04191617 3.86038961 4.04191617 3.81601732 3.99700599 3.72727273 3.99700599 3.68290043 3.95209581 3.59415584 3.90718563 3.50541126 3.86227545 3.41666667 3.86227545 3.32792208 3.81736527 3.19480519L3.00898204 1.10930736 3.81736527 1.10930736 4.26646707 2.44047619C4.31137725 2.52922078 4.31137725 2.57359307 4.31137725 2.66233766 4.31137725 2.75108225 4.35628743 2.79545455 4.35628743 2.88419913 4.35628743 2.97294372 4.4011976 3.01731602 4.4011976 3.10606061 4.4011976 3.01731602 4.44610778 2.97294372 4.44610778 2.88419913 4.44610778 2.83982684 4.49101796 2.75108225 4.49101796 2.66233766 4.49101796 2.57359307 4.53592814 2.52922078 4.53592814 2.44047619L4.94011976 1.10930736 5.74850299 1.10930736 4.71556886 4.12662338C4.67065868 4.30411255 4.58083832 4.43722944 4.53592814 4.52597403 4.49101796 4.65909091 4.4011976 4.7478355 4.31137725 4.79220779 4.22155689 4.88095238 4.13173653 4.92532468 4.04191617 4.92532468 3.95209581 4.96969697 3.81736527 4.96969697 3.63772455 4.96969697L3.18862275 4.96969697 3.18862275 4.43722944 3.32335329 4.43722944z"/>
        </g>
      </g>
      <polygon points="11.632 12.38 23.847 12.38 23.847 16.063 20.075 16.063 20.075 39.314 15.404 39.314 15.404 16.107 11.632 16.107"/>
      <polygon points="34.356 27.466 29.91 27.466 29.91 39.358 25.374 39.358 25.374 12.38 29.955 12.38 29.955 23.784 34.401 23.784 34.401 12.38 39.027 12.38 39.027 39.358 34.356 39.358"/>
      <polygon points="41.901 12.38 52.859 12.38 52.859 16.063 46.482 16.063 46.482 23.784 51.018 23.784 51.018 27.422 46.482 27.422 46.482 35.631 52.859 35.631 52.859 39.314 41.901 39.314 41.901 12.38"/>
      <polygon points="63.099 22.408 63.099 39.358 59.237 39.358 59.237 12.38 63.728 12.38 68.668 27.866 68.668 12.38 72.485 12.38 72.485 39.358 68.443 39.358"/>
      <polygon points="75.449 12.38 86.407 12.38 86.407 16.063 80.03 16.063 80.03 23.784 84.566 23.784 84.566 27.422 80.03 27.422 80.03 35.631 86.407 35.631 86.407 39.314 75.449 39.314"/>
      <polygon points="98.129 22.674 95.569 39.314 91.257 39.314 87.575 12.335 92.021 12.335 94.132 29.419 94.177 29.419 96.467 12.335 100.195 12.335 102.71 29.419 102.754 29.419 104.865 12.335 108.728 12.335 105.18 39.314 100.823 39.314"/>
      <path d="M129.071856,19.6125541 L129.071856,32.0811688 C129.071856,36.2077922 127.320359,39.3138528 122.42515,39.3138528 L115.329341,39.3138528 L115.329341,12.3798701 L122.42515,12.3798701 C127.320359,12.3798701 129.071856,15.4415584 129.071856,19.6125541 Z M121.841317,35.6753247 C123.727545,35.6753247 124.446108,34.5660173 124.446108,32.9242424 L124.446108,18.8138528 C124.446108,17.2164502 123.727545,16.1071429 121.841317,16.1071429 L119.91018,16.1071429 L119.91018,35.6753247 L121.841317,35.6753247 Z"/>
      <polygon points="131.497 12.38 136.078 12.38 136.078 39.358 131.497 39.358"/>
      <polygon points="152.829 12.38 147.62 39.358 142.635 39.358 137.425 12.38 142.096 12.38 145.24 31.194 145.284 31.194 148.518 12.38 152.829 12.38"/>
      <polygon points="154.132 12.38 158.713 12.38 158.713 39.358 154.132 39.358"/>
      <path d="M160.958084,33.5454545 L160.958084,29.9069264 L165.224551,29.9069264 L165.224551,33.5898268 C165.224551,35.0984848 165.898204,35.9859307 167.47006,35.9859307 C168.907186,35.9859307 169.580838,35.0097403 169.580838,33.5898268 L169.580838,32.5692641 C169.580838,31.0162338 168.952096,30.0844156 167.51497,28.7532468 L164.820359,26.0909091 C162.215569,23.5616883 161.002994,22.008658 161.002994,18.9025974 L161.002994,17.9707792 C161.002994,14.6428571 162.979042,12.0248918 167.42515,12.0248918 C172.005988,12.0248918 173.802395,14.2435065 173.802395,18.1482684 L173.802395,20.3225108 L169.625749,20.3225108 L169.625749,17.9707792 C169.625749,16.4177489 168.907186,15.6634199 167.47006,15.6634199 C166.167665,15.6634199 165.314371,16.3733766 165.314371,17.8820346 L165.314371,18.4588745 C165.314371,19.9675325 166.167665,20.8549784 167.47006,22.0974026 L170.389222,24.9816017 C172.904192,27.4664502 174.071856,29.0194805 174.071856,31.9924242 L174.071856,33.3235931 C174.071856,37.0064935 172.050898,39.6244589 167.38024,39.6244589 C162.799401,39.6688312 160.958084,37.0952381 160.958084,33.5454545 Z"/>
      <polygon points="175.958 12.38 180.539 12.38 180.539 39.358 175.958 39.358"/>
      <path d="M183.053892,32.3917749 L183.053892,19.3463203 C183.053892,15.1309524 185.164671,12.0692641 189.97006,12.0692641 C194.820359,12.0692641 196.931138,15.1309524 196.931138,19.3463203 L196.931138,32.3917749 C196.931138,36.5627706 194.820359,39.6688312 189.97006,39.6688312 C185.11976,39.6688312 183.053892,36.5627706 183.053892,32.3917749 Z M192.350299,33.1017316 L192.350299,18.6363636 C192.350299,16.9945887 191.631737,15.8409091 189.97006,15.8409091 C188.353293,15.8409091 187.634731,16.9945887 187.634731,18.6363636 L187.634731,33.1017316 C187.634731,34.7435065 188.353293,35.8971861 189.97006,35.8971861 C191.586826,35.8971861 192.350299,34.7435065 192.350299,33.1017316 Z"/>
      <polygon points="203.263 22.408 203.263 39.358 199.401 39.358 199.401 12.38 203.892 12.38 208.832 27.866 208.832 12.38 212.65 12.38 212.65 39.358 208.608 39.358"/>
      <path d="M224.95509,51.4718615 L0.314371257,51.4718615 L0.314371257,0.266233766 L224.91018,0.266233766 L224.91018,51.4718615 L224.95509,51.4718615 Z M2.51497006,49.3419913 L222.754491,49.3419913 L222.754491,2.3961039 L2.51497006,2.3961039 L2.51497006,49.3419913 Z"/>
    </g>
  </g>
</svg>
