<svg width="500" height="657" xmlns="http://www.w3.org/2000/svg"><path d="M1 318l29 9 7 2 10 3 42 13 36 12 113 34v265L0 602v-97c19 0 34-16 34-35 1-10-3-19-9-26a36 36 0 00-24-11V318zm499 0v115h-1c-7 0-13 2-19 6h-1a36 36 0 00-4 57l4 3c5 3 12 5 19 5h1v97l-238 55V391l112-34 38-12 48-15 9-2 9-3 23-7zm-301-39l27 26 26 27 53-53h65c19 0 38 6 54 17 7 5 14 11 20 18l-191 58-197-59c19-21 45-34 73-34h70zm90-163c15-8 22-1 31 7h1c12 10 23 21 34 33-7 54-53 94-106 93-54 0-99-42-104-96 18 1 35 0 52-4 24-3 46-10 67-20 12-5 16-9 25-13zm-92-98c37-19 69-22 82-13 9 8 19 12 31 13 7-1 15 2 20 9 18 21 30 47 34 75 1 9 3 26-2 27-2 1-4-1-7-4l-29-22-8-8-9-6c-8-1-16 0-22 4-11 4-23 8-33 14a240 240 0 01-108 21c-8 0-24-4-21-13 15-38 45-82 72-97z" fill="#949494" fill-rule="nonzero"/></svg>