<svg xmlns="http://www.w3.org/2000/svg" width="225" height="118" viewBox="0 0 225 118">
  <g fill="none" fill-rule="evenodd">
    <rect width="225" height="118"/>
    <g fill="#000" transform="translate(-1)">
      <polygon points=".637 3.712 143.671 3.712 143.671 0 .637 0"/>
      <polygon points=".637 107.962 143.671 107.962 143.671 106.589 .637 106.589"/>
      <g transform="translate(.573 13.612)">
        <polyline points="19.696 1.879 17.249 2.248 10.674 21.082 9.298 21.082 2.08 2.125 0 1.879 0 .469 8.685 .469 8.685 1.94 5.994 2.218 10.888 15.775 15.567 2.309 12.722 1.94 12.722 .469 19.696 .469 19.696 1.879"/>
        <path d="M37.3737345 15.3768994L37.159646 20.7756213 21.0724248 20.7756213 21.0724248 19.3652308 23.7020177 19.0878817C23.7434336 17.7995503 23.7644602 16.5067456 23.7644602 15.2075503 23.7644602 13.9096331 23.7644602 12.5963787 23.7644602 11.2658698L23.7644602 9.97753846C23.7644602 8.66939645 23.7644602 7.36508876 23.7644602 6.06653254 23.7644602 4.76861538 23.7434336 3.46430769 23.7020177 2.15488757L21.0724248 1.87945562 21.0724248.469065089 36.5473274.469065089 36.7614159 5.86714793 34.7428673 5.86714793 34.071292 2.09417751 27.5250265 2.09417751C27.4842478 3.32115976 27.4644956 4.55389349 27.4644956 5.79110059 27.4644956 7.02766864 27.4644956 8.28085207 27.4644956 9.54809467L31.6857345 9.54809467 32.0826903 6.7260355 33.6118938 6.7260355 33.6118938 13.9045207 32.0826903 13.9045207 31.7150442 11.1131361 27.4644956 11.1131361C27.4644956 12.5452544 27.4644956 13.9243314 27.4644956 15.2535621 27.4644956 16.584071 27.4842478 17.892213 27.5250265 19.1805444L34.6823363 19.1805444 35.3551858 15.3768994 37.3737345 15.3768994M47.6499823 9.97753846C48.4451681 9.97753846 49.1333097 9.87017751 49.7144071 9.65545562 50.2955044 9.44073373 50.7695575 9.1499645 51.1365664 8.78186982 51.5042124 8.41313609 51.7737345 7.97410651 51.9470442 7.46222485 52.1197168 6.9516213 52.2070088 6.39884024 52.2070088 5.80579882 52.2070088 4.57881657 51.8546549 3.6432426 51.1518584 2.99907692 50.4484248 2.35491124 49.3321062 2.0328284 47.8029027 2.0328284L45.8767434 2.0328284C45.8353274 3.32115976 45.8155752 4.6152426 45.8155752 5.91315976 45.8155752 7.21235503 45.8155752 8.56714793 45.8155752 9.97753846L47.6499823 9.97753846zM58.2014867 19.3652308L58.2014867 20.7756213C57.304354 20.9801183 56.4282478 21.0823669 55.5706195 21.0823669 54.4906195 21.0823669 53.6183363 20.9289941 52.9563186 20.6216095 52.2943009 20.3148639 51.8712212 19.7122367 51.6870796 18.8118107L50.6778053 14.3026509C50.555469 13.7511479 50.3974513 13.2967811 50.203115 12.9382722 50.0094159 12.5797633 49.7653805 12.2992189 49.4703717 12.0947219 49.1740885 11.8895858 48.8172743 11.747716 48.399292 11.6652781 47.9806726 11.5841183 47.4970619 11.5425799 46.9465487 11.5425799L45.8155752 11.5425799C45.8155752 12.8309112 45.8155752 14.0987929 45.8155752 15.3462249 45.8155752 16.5942959 45.8353274 17.8308639 45.8767434 19.0578462L48.5369204 19.3652308 48.5369204 20.7756213 39.4534513 20.7756213 39.4534513 19.3652308 42.0830442 19.0878817C42.1244602 17.7995503 42.1454867 16.5067456 42.1454867 15.2075503 42.1454867 13.9096331 42.1454867 12.5963787 42.1454867 11.2658698L42.1454867 9.97753846C42.1454867 8.66939645 42.1454867 7.36508876 42.1454867 6.06653254 42.1454867 4.76861538 42.1244602 3.46430769 42.0830442 2.15488757L39.4534513 1.87945562 39.4534513.469065089 48.5063363.469065089C50.8307257.469065089 52.6351858.928544379 53.9197168 1.84942012 55.204885 2.76901775 55.8471504 4.02731361 55.8471504 5.62111243 55.8471504 6.1943432 55.7598584 6.75734911 55.5871858 7.30885207 55.4126018 7.86163314 55.1379823 8.37223669 54.7607788 8.84257988 54.3835752 9.31356213 53.8948673 9.73278107 53.2933805 10.1008757 52.6912566 10.4676923 51.9616991 10.7450414 51.1059823 10.9284497 51.9833628 11.1942959 52.7059115 11.6454675 53.2774513 12.2781302 53.848354 12.912071 54.276531 13.7818225 54.5613451 14.8854675L55.6018407 19.0878817 58.2014867 19.3652308zM68.0183363 19.2112189C69.0174159 19.2112189 69.9343009 19.0265325 70.7709027 18.6584379 71.6068673 18.2903432 72.3153982 17.7439527 72.8964956 17.0173491 73.4775929 16.2920237 73.9306195 15.3922367 74.2574867 14.3186272 74.5837168 13.2450178 74.7468319 12.0135621 74.7468319 10.6217041 74.7468319 7.82073373 74.1294159 5.68885207 72.8964956 4.22605917 71.6629381 2.76454438 70.0266903 2.0328284 67.9883894 2.0328284L66.1214867 2.0328284C66.080708 3.34224852 66.0603186 4.65550296 66.0603186 5.97450888 66.0603186 7.29415385 66.0603186 8.62785799 66.0603186 9.97753846L66.0603186 10.9284497C66.0603186 12.4014675 66.0603186 13.811858 66.0603186 15.1621775 66.0603186 16.511858 66.080708 17.8608994 66.1214867 19.2112189L68.0183363 19.2112189zM68.8135221.469065089C70.260531.469065089 71.5973097.688899408 72.8206726 1.12792899 74.0440354 1.56823669 75.0928142 2.21751479 75.9701947 3.07640237 76.8463009 3.93528994 77.5293451 4.99356213 78.0186903 6.25057988 78.5086726 7.50823669 78.752708 8.9448284 78.752708 10.560355 78.752708 12.2167811 78.4825487 13.6846864 77.9428673 14.9627929 77.4025487 16.2408994 76.6583363 17.3093964 75.7102301 18.168284 74.7621239 19.0265325 73.6458053 19.6758107 72.3612743 20.1161183 71.0767434 20.555787 69.6896283 20.7756213 68.2024779 20.7756213L59.668885 20.7756213 59.668885 19.3652308 62.2984779 19.0878817C62.3392566 17.7995503 62.3609204 16.4869349 62.3609204 15.1462012 62.3609204 13.8067456 62.3609204 12.4014675 62.3609204 10.9284497L62.3609204 9.97753846C62.3609204 8.66939645 62.3609204 7.36508876 62.3609204 6.06653254 62.3609204 4.76861538 62.3392566 3.46430769 62.2984779 2.15488757L59.668885 1.87945562 59.668885.469065089 68.8135221.469065089zM96.6144425 15.3768994L96.400354 20.7756213 80.3131327 20.7756213 80.3131327 19.3652308 82.9427257 19.0878817C82.9841416 17.7995503 83.0051681 16.5067456 83.0051681 15.2075503 83.0051681 13.9096331 83.0051681 12.5963787 83.0051681 11.2658698L83.0051681 9.97753846C83.0051681 8.66939645 83.0051681 7.36508876 83.0051681 6.06653254 83.0051681 4.76861538 82.9841416 3.46430769 82.9427257 2.15488757L80.3131327 1.87945562 80.3131327.469065089 95.7886726.469065089 96.0021239 5.86714793 93.9835752 5.86714793 93.312 2.09417751 86.7657345 2.09417751C86.7249558 3.32115976 86.7052035 4.55389349 86.7052035 5.79110059 86.7052035 7.02766864 86.7052035 8.28085207 86.7052035 9.54809467L90.9264425 9.54809467 91.3233982 6.7260355 92.8526018 6.7260355 92.8526018 13.9045207 91.3233982 13.9045207 90.9563894 11.1131361 86.7052035 11.1131361C86.7052035 12.5452544 86.7052035 13.9243314 86.7052035 15.2535621 86.7052035 16.584071 86.7249558 17.892213 86.7657345 19.1805444L93.9230442 19.1805444 94.5958938 15.3768994 96.6144425 15.3768994"/>
        <polyline points="119.461 1.879 116.739 2.279 116.739 21.082 115.455 21.082 102.945 4.794 102.945 18.966 106.31 19.365 106.31 20.776 98.51 20.776 98.51 19.365 101.263 18.996 101.263 2.616 100.866 2.125 98.755 1.879 98.755 .469 104.137 .469 115.057 14.855 115.057 2.279 111.693 1.879 111.693 .469 119.461 .469 119.461 1.879"/>
        <path d="M129.401841 9.02598817C130.462088 9.41581065 131.349664 9.82991716 132.062655 10.2695858 132.77692 10.7086154 133.358018 11.184071 133.805947 11.6965917 134.253876 12.2065562 134.575009 12.7497515 134.769345 13.3217041 134.963044 13.8942959 135.060531 14.4969231 135.060531 15.131503 135.060531 16.0312899 134.871292 16.8537515 134.494088 17.6001657 134.116885 18.347858 133.591858 18.9920237 132.918372 19.5333018 132.246796 20.0752189 131.440142 20.4944379 130.502867 20.7903195 129.564956 21.0874793 128.525735 21.2357396 127.383292 21.2357396 126.221097 21.2357396 125.089487 21.0874793 123.98846 20.7903195 122.888071 20.4944379 121.950159 20.111645 121.174726 19.6406627L121.358867 15.2235266 123.591504 15.2235266 124.202549 18.8731598C124.671504 19.1191953 125.150655 19.3026036 125.64 19.4259408 126.129982 19.5486391 126.690053 19.6093491 127.322124 19.6093491 128.68885 19.6093491 129.763752 19.3026036 130.549381 18.6897515 131.333097 18.0756213 131.72623 17.2167337 131.72623 16.1124497 131.72623 15.6830059 131.660602 15.3046864 131.527434 14.9774911 131.39554 14.6509349 131.186549 14.3550533 130.899823 14.087929 130.615009 13.8233609 130.258195 13.5773254 129.830018 13.3523787 129.401841 13.128071 128.881274 12.9018462 128.270867 12.6775385L126.925168 12.1867456C125.211823 11.5329941 123.861664 10.6990296 122.872142 9.68676923 121.882619 8.67450888 121.388814 7.40087574 121.388814 5.86714793 121.388814 4.9884497 121.561487 4.19091124 121.908743 3.47453254 122.256 2.75943195 122.740248 2.14530178 123.36085 1.63469822 123.983363 1.12281657 124.732673.724686391 125.610053.437751479 126.486159.152094675 127.465487.00830769231 128.545487.00830769231 129.625487.00830769231 130.620106.152094675 131.527434.437751479 132.434761.724686391 133.244602 1.12281657 133.958867 1.63469822L133.744779 5.74508876 131.543363 5.74508876 130.899823 2.15488757C130.105912 1.80788166 129.299894 1.63469822 128.484319 1.63469822 127.934442 1.63469822 127.424071 1.70563314 126.955115 1.84942012 126.486159 1.99192899 126.079009 2.20153846 125.731752 2.47697041 125.384496 2.75431953 125.109876 3.10132544 124.906619 3.52054438 124.702726 3.93976331 124.600779 4.41585799 124.600779 4.9475503 124.600779 5.86714793 124.89069 6.58863905 125.471788 7.1088284 126.052885 7.63093491 126.893947 8.09616568 127.995611 8.50579882L129.401841 9.02598817M8.68523894 49.8857751C10.7445664 49.8857751 12.187115 49.5227929 13.0135221 48.7961893 13.8386549 48.071503 14.2515398 47.0541302 14.2515398 45.7447101 14.2515398 44.3330414 13.8233628 43.295858 12.967646 42.6306036 12.111292 41.9666272 10.6935929 41.6343195 8.71646018 41.6343195L7.24778761 41.6343195C7.24778761 43.1060592 7.24778761 44.5177278 7.24778761 45.8667692 7.24778761 47.2177278 7.26753982 48.5565444 7.30895575 49.8857751L8.68523894 49.8857751zM7.30895575 32.7080237C7.26753982 33.9343669 7.24778761 35.1613491 7.24778761 36.3883314 7.24778761 37.6153136 7.24778761 38.8537988 7.24778761 40.1005917L8.6240708 40.1005917C10.2756106 40.1005917 11.4792212 39.7932071 12.2329912 39.180355 12.9873982 38.5668639 13.3646018 37.6153136 13.3646018 36.3276213 13.3646018 35.0392899 13.0186195 34.1145799 12.3253805 33.551574 11.6321416 32.988568 10.5616991 32.7080237 9.11341593 32.7080237L7.30895575 32.7080237zM10.0927434 31.1436213C12.376354 31.1436213 14.0839646 31.6094911 15.2149381 32.5393136 16.3471858 33.4704142 16.912354 34.6807811 16.912354 36.1736095 16.912354 37.1973728 16.6014159 38.1323077 15.980177 38.9809704 15.3583009 39.8296331 14.3025133 40.427787 12.8140885 40.776071 13.7526372 40.9390296 14.5465487 41.1786746 15.2002832 41.496284 15.8521062 41.8132544 16.3873274 42.1864615 16.8053097 42.6152663 17.223292 43.0447101 17.5246726 43.5316686 17.7075398 44.0723077 17.8916814 44.6148639 17.9827965 45.1817041 17.9827965 45.7747456 17.9827965 46.4713136 17.8458053 47.1551006 17.5705487 47.8305799 17.2946549 48.5054201 16.8212389 49.1131598 16.1483894 49.6550769 15.4749027 50.1982722 14.563115 50.6321893 13.4104779 50.9593846 12.259115 51.2865799 10.8159292 51.4501775 9.08346903 51.4501775L.856353982 51.4501775.856353982 50.039787 3.4859469 49.7624379C3.52672566 48.4741065 3.54775221 47.1813018 3.54775221 45.8821065 3.54775221 44.5841893 3.54775221 43.2709349 3.54775221 41.940426L3.54775221 40.6520947C3.54775221 39.3439527 3.54775221 38.039645 3.54775221 36.7417278 3.54775221 35.4438107 3.52672566 34.139503 3.4859469 32.8300828L.856353982 32.5540118.856353982 31.1436213 10.0927434 31.1436213zM35.9662301 46.0514556L35.7521416 51.4501775 19.6649204 51.4501775 19.6649204 50.039787 22.2945133 49.7624379C22.3359292 48.4741065 22.3569558 47.1813018 22.3569558 45.8821065 22.3569558 44.5841893 22.3569558 43.2709349 22.3569558 41.940426L22.3569558 40.6520947C22.3569558 39.3439527 22.3569558 38.039645 22.3569558 36.7417278 22.3569558 35.4438107 22.3359292 34.139503 22.2945133 32.8300828L19.6649204 32.5540118 19.6649204 31.1436213 35.139823 31.1436213 35.3539115 36.5423432 33.3353628 36.5423432 32.6637876 32.7687337 26.1175221 32.7687337C26.0767434 33.995716 26.0569912 35.2290888 26.0569912 36.4656568 26.0569912 37.7028639 26.0569912 38.9560473 26.0569912 40.2226509L30.2782301 40.2226509 30.6751858 37.4005917 32.2043894 37.4005917 32.2043894 44.5790769 30.6751858 44.5790769 30.3075398 41.7883314 26.0569912 41.7883314C26.0569912 43.2198107 26.0569912 44.5988876 26.0569912 45.9281183 26.0569912 47.2586272 26.0767434 48.5667692 26.1175221 49.8551006L33.2748319 49.8551006 33.9476814 46.0514556 35.9662301 46.0514556M46.3953982 49.8857751C47.3944779 49.8857751 48.312 49.7010888 49.1479646 49.3329941 49.9845664 48.9648994 50.6924602 48.4185089 51.2735575 47.6919053 51.8546549 46.9665799 52.3076814 46.0667929 52.6351858 44.9931834 52.9614159 43.919574 53.124531 42.6881183 53.124531 41.2962604 53.124531 38.4952899 52.507115 36.3634083 51.2735575 34.9006154 50.0406372 33.4391006 48.4037522 32.7080237 46.3654513 32.7080237L44.4985487 32.7080237C44.4577699 34.0168047 44.4380177 35.3300592 44.4380177 36.6497041 44.4380177 37.9687101 44.4380177 39.3030533 44.4380177 40.6520947L44.4380177 41.6030059C44.4380177 43.0760237 44.4380177 44.4864142 44.4380177 45.8367337 44.4380177 47.1864142 44.4577699 48.5354556 44.4985487 49.8857751L46.3953982 49.8857751zM47.1905841 31.1436213C48.6382301 31.1436213 49.9743717 31.3634556 51.1977345 31.8031243 52.4210973 32.243432 53.4705133 32.8927101 54.3472566 33.7509586 55.2233628 34.6098462 55.9070442 35.6681183 56.3957522 36.9251361 56.8863717 38.183432 57.1304071 39.6200237 57.1304071 41.2349112 57.1304071 42.8913373 56.8602478 44.3592426 56.3199292 45.6373491 55.7802478 46.9154556 55.0360354 47.9839527 54.087292 48.8428402 53.1391858 49.7010888 52.0228673 50.3503669 50.7383363 50.7906746 49.4544425 51.2303432 48.0666903 51.4501775 46.5795398 51.4501775L38.0465841 51.4501775 38.0465841 50.039787 40.6755398 49.7624379C40.7169558 48.4741065 40.7379823 47.1614911 40.7379823 45.8207574 40.7379823 44.4813018 40.7379823 43.0760237 40.7379823 41.6030059L40.7379823 40.6520947C40.7379823 39.3439527 40.7379823 38.039645 40.7379823 36.7417278 40.7379823 35.4438107 40.7169558 34.139503 40.6755398 32.8300828L38.0465841 32.5540118 38.0465841 31.1436213 47.1905841 31.1436213zM67.6506903 39.7011834C68.7109381 40.0903669 69.5985133 40.5051124 70.3115044 40.944142 71.0257699 41.3838107 71.6068673 41.8592663 72.0547965 42.3711479 72.5033628 42.8811124 72.8238584 43.4243077 73.0181947 43.9962604 73.212531 44.5688521 73.3093805 45.1714793 73.3093805 45.8060592 73.3093805 46.7058462 73.1201416 47.5283077 72.7435752 48.2747219 72.3663717 49.0224142 71.8413451 49.6665799 71.1678584 50.207858 70.495646 50.7497751 69.6896283 51.1689941 68.752354 51.4648757 67.8138053 51.7620355 66.7745841 51.9102959 65.6321416 51.9102959 64.4699469 51.9102959 63.3389735 51.7620355 62.2373097 51.4648757 61.1375575 51.1689941 60.1990088 50.7862012 59.4235752 50.3152189L59.6077168 45.8980828 61.840354 45.8980828 62.4513982 49.547716C62.9209912 49.7937515 63.4001416 49.9771598 63.8888496 50.100497 64.379469 50.2231953 64.9389027 50.2839053 65.5716106 50.2839053 66.9376991 50.2839053 68.0132389 49.9771598 68.7982301 49.3643077 69.5825841 48.7501775 69.9757168 47.8912899 69.9757168 46.7870059 69.9757168 46.3575621 69.9094513 45.9792426 69.7762832 45.6520473 69.6443894 45.3254911 69.4353982 45.0296095 69.1493097 44.7624852 68.8644956 44.4979172 68.5070442 44.2518817 68.0788673 44.0269349 67.6506903 43.8026272 67.1307611 43.5764024 66.5197168 43.3520947L65.1746549 42.8613018C63.4606726 42.2075503 62.1105133 41.3735858 61.1209912 40.3613254 60.1321062 39.3490651 59.6376637 38.076071 59.6376637 36.5423432 59.6376637 35.663645 59.8109735 34.8661065 60.1582301 34.1490888 60.5054867 33.4339882 60.9890973 32.819858 61.6103363 32.3098935 62.2322124 31.7980118 62.9815221 31.3998817 63.8589027 31.1123077 64.7350088 30.8266509 65.7143363 30.683503 66.7949735 30.683503 67.8749735 30.683503 68.8689558 30.8266509 69.7762832 31.1123077 70.6836106 31.3998817 71.4940885 31.7980118 72.208354 32.3098935L71.9942655 36.419645 69.7928496 36.419645 69.1493097 32.8300828C68.3553982 32.4830769 67.5487434 32.3098935 66.7338053 32.3098935 66.1839292 32.3098935 65.6735575 32.3808284 65.2046018 32.5239763 64.7350088 32.6664852 64.3284956 32.8760947 63.9812389 33.1521657 63.6339823 33.4288757 63.3587257 33.7758817 63.1561062 34.1957396 62.9515752 34.6149586 62.8496283 35.0904142 62.8496283 35.6221065 62.8496283 36.5423432 63.1395398 37.2631953 63.7206372 37.7840237 64.3017345 38.3054911 65.1434336 38.7713609 66.2444602 39.180355L67.6506903 39.7011834M85.2677522 32.7687337C85.2263363 34.0570651 85.2065841 35.3562604 85.2065841 36.6644024 85.2065841 37.9738225 85.2065841 39.3030533 85.2065841 40.6520947L85.2065841 41.940426C85.2065841 43.2293964 85.2065841 44.5228402 85.2065841 45.8207574 85.2065841 47.1199527 85.2263363 48.4229822 85.2677522 49.7324024L88.2031858 50.039787 88.2031858 51.4501775 78.5086726 51.4501775 78.5086726 50.039787 81.4447434 49.7324024C81.4855221 48.4447101 81.5052743 47.1551006 81.5052743 45.8667692 81.5052743 44.5790769 81.5052743 43.2709349 81.5052743 41.940426L81.5052743 40.6520947C81.5052743 39.3439527 81.5052743 38.0351716 81.5052743 36.7270296 81.5052743 35.4176095 81.4855221 34.0979645 81.4447434 32.7687337L77.0718584 32.7687337 76.4295929 36.7270296 74.4110442 36.7270296 74.5939115 31.1436213 92.1185841 31.1436213 92.3014513 36.7270296 90.2829027 36.7270296 89.6406372 32.7687337 85.2677522 32.7687337M110.377274 46.0514556L110.163823 51.4501775 94.0759646 51.4501775 94.0759646 50.039787 96.7055575 49.7624379C96.7463363 48.4741065 96.768 47.1813018 96.768 45.8821065 96.768 44.5841893 96.768 43.2709349 96.768 41.940426L96.768 40.6520947C96.768 39.3439527 96.768 38.039645 96.768 36.7417278 96.768 35.4438107 96.7463363 34.139503 96.7055575 32.8300828L94.0759646 32.5540118 94.0759646 31.1436213 109.551504 31.1436213 109.765593 36.5423432 107.747044 36.5423432 107.074832 32.7687337 100.528566 32.7687337C100.487788 33.995716 100.467398 35.2290888 100.467398 36.4656568 100.467398 37.7028639 100.467398 38.9560473 100.467398 40.2226509L104.688637 40.2226509 105.085593 37.4005917 106.615434 37.4005917 106.615434 44.5790769 105.085593 44.5790769 104.718584 41.7883314 100.467398 41.7883314C100.467398 43.2198107 100.467398 44.5988876 100.467398 45.9281183 100.467398 47.2586272 100.487788 48.5667692 100.528566 49.8551006L107.685876 49.8551006 108.359363 46.0514556 110.377274 46.0514556"/>
        <polyline points="21.623 63.229 18.901 63.629 18.901 82.432 17.617 82.432 5.108 66.143 5.108 80.315 8.471 80.714 8.471 82.125 .672 82.125 .672 80.714 3.425 80.346 3.425 63.965 3.028 63.475 .917 63.229 .917 61.819 6.3 61.819 17.218 76.205 17.218 63.629 13.855 63.229 13.855 61.819 21.623 61.819 21.623 63.229"/>
        <path d="M33.9164602 73.5665325L33.9164602 75.0702249C33.9164602 75.9700118 33.9164602 76.8391243 33.9164602 77.676284 33.9164602 78.5153609 33.9266549 79.4253728 33.9476814 80.4075976L36.9442832 80.7143432 36.9442832 82.1247337 27.2191858 82.1247337 27.2191858 80.7143432 30.1858407 80.4075976C30.2055929 79.4253728 30.2157876 78.5153609 30.2157876 77.676284 30.2157876 76.8391243 30.2157876 75.9700118 30.2157876 75.0702249L30.2157876 73.7512189 25.0477168 63.4752426 22.8456637 63.2292071 22.8456637 61.8188166 31.8686018 61.8188166 31.8686018 63.2292071 29.2065133 63.5359527 33.0919646 72.0947929 37.1895929 63.5973018 34.5899469 63.2292071 34.5899469 61.8188166 41.3490265 61.8188166 41.3490265 63.2292071 38.8417699 63.6286154 33.9164602 73.5665325M61.9626903 63.5046391C61.9212743 64.7942485 61.9015221 66.0870533 61.9015221 67.3856095 61.9015221 68.6848047 61.9015221 69.9980592 61.9015221 71.3272899L61.9015221 72.6149822C61.9015221 73.9244024 61.9015221 75.2287101 61.9015221 76.5266272 61.9015221 77.8264615 61.9212743 79.1294911 61.9626903 80.4376331L64.5935575 80.7143432 64.5935575 82.1247337 55.4788673 82.1247337 55.4788673 80.7143432 58.1396814 80.4075976C58.1804602 79.1601657 58.2002124 77.8871716 58.2002124 76.5879763 58.2002124 75.2900592 58.2002124 73.9141775 58.2002124 72.4628876L49.0562124 72.4628876C49.0562124 73.8943669 49.0562124 75.2587456 49.0562124 76.5566627 49.0562124 77.855858 49.0759646 79.1493018 49.1173805 80.4376331L51.7476106 80.7143432 51.7476106 82.1247337 42.6647788 82.1247337 42.6647788 80.7143432 45.2943717 80.4376331C45.3351504 79.1493018 45.356177 77.855858 45.356177 76.5566627 45.356177 75.2587456 45.356177 73.9454911 45.356177 72.6149822L45.356177 71.3272899C45.356177 70.0191479 45.356177 68.7148402 45.356177 67.4169231 45.356177 66.1183669 45.3351504 64.8140592 45.2943717 63.5046391L42.6647788 63.2292071 42.6647788 61.8188166 51.7476106 61.8188166 51.7476106 63.2292071 49.1173805 63.5046391C49.0759646 64.7316213 49.0562124 65.9586036 49.0562124 67.1855858 49.0562124 68.4138462 49.0562124 69.6510533 49.0562124 70.8978462L58.2002124 70.8978462C58.2002124 69.6708639 58.2002124 68.4438817 58.2002124 67.2168994 58.2002124 65.9899172 58.1804602 64.7629349 58.1396814 63.5359527L55.4788673 63.2292071 55.4788673 61.8188166 64.5935575 61.8188166 64.5935575 63.2292071 61.9626903 63.5046391M83.2192566 76.7266509L83.0051681 82.1247337 66.9179469 82.1247337 66.9179469 80.7143432 69.5475398 80.4376331C69.5883186 79.1493018 69.6099823 77.855858 69.6099823 76.5566627 69.6099823 75.2587456 69.6099823 73.9454911 69.6099823 72.6149822L69.6099823 71.3272899C69.6099823 70.0191479 69.6099823 68.7148402 69.6099823 67.4169231 69.6099823 66.1183669 69.5883186 64.8140592 69.5475398 63.5046391L66.9179469 63.2292071 66.9179469 61.8188166 82.3928496 61.8188166 82.6069381 67.2168994 80.5883894 67.2168994 79.916177 63.443929 73.3705487 63.443929C73.3291327 64.6709112 73.3093805 65.903645 73.3093805 67.1408521 73.3093805 68.3774201 73.3093805 69.6306036 73.3093805 70.8978462L77.5306195 70.8978462 77.9275752 68.075787 79.4574159 68.075787 79.4574159 75.2536331 77.9275752 75.2536331 77.5605664 72.4628876 73.3093805 72.4628876C73.3093805 73.8943669 73.3093805 75.2734438 73.3093805 76.6033136 73.3093805 77.9338225 73.3291327 79.2413254 73.3705487 80.5296568L80.5272212 80.5296568 81.200708 76.7266509 83.2192566 76.7266509M93.6477876 80.5609704C94.6468673 80.5609704 95.5643894 80.376284 96.400354 80.0081893 97.2369558 79.6394556 97.9448496 79.0930651 98.5259469 78.3664615 99.1070442 77.6417751 99.5600708 76.7413491 99.8875752 75.6683787 100.213805 74.5947692 100.37692 73.3626746 100.37692 71.9708166 100.37692 69.1704852 99.7595044 67.0386036 98.5259469 65.5758107 97.2930265 64.1142959 95.6561416 63.3825799 93.6178407 63.3825799L91.7515752 63.3825799C91.7101593 64.692 91.6904071 66.0052544 91.6904071 67.3242604 91.6904071 68.6432663 91.6904071 69.9776095 91.6904071 71.3272899L91.6904071 72.2782012C91.6904071 73.7512189 91.6904071 75.1616095 91.6904071 76.511929 91.6904071 77.8609704 91.7101593 79.2106509 91.7515752 80.5609704L93.6477876 80.5609704zM94.4429735 61.8188166C95.8906195 61.8188166 97.2267611 62.0380118 98.4501239 62.4776805 99.6734867 62.9179882 100.722903 63.5672663 101.600283 64.4261538 102.476389 65.2850414 103.159434 66.3433136 103.648142 67.6003314 104.138761 68.8579882 104.382796 70.2945799 104.382796 71.9101065 104.382796 73.5665325 104.112637 75.0337988 103.572319 76.3119053 103.032637 77.5900118 102.288425 78.6585089 101.339681 79.5173964 100.391575 80.376284 99.2752566 81.0249231 97.9913628 81.4658698 96.7068319 81.9048994 95.3190796 82.1247337 93.8319292 82.1247337L85.2989735 82.1247337 85.2989735 80.7143432 87.9285664 80.4376331C87.9693451 79.1493018 87.9903717 77.8360473 87.9903717 76.4959527 87.9903717 75.156497 87.9903717 73.7512189 87.9903717 72.2782012L87.9903717 71.3272899C87.9903717 70.0191479 87.9903717 68.7148402 87.9903717 67.4169231 87.9903717 66.1183669 87.9693451 64.8140592 87.9285664 63.5046391L85.2989735 63.2292071 85.2989735 61.8188166 94.4429735 61.8188166zM122.244531 76.7266509L122.03108 82.1247337 105.943221 82.1247337 105.943221 80.7143432 108.572814 80.4376331C108.61423 79.1493018 108.635257 77.855858 108.635257 76.5566627 108.635257 75.2587456 108.635257 73.9454911 108.635257 72.6149822L108.635257 71.3272899C108.635257 70.0191479 108.635257 68.7148402 108.635257 67.4169231 108.635257 66.1183669 108.61423 64.8140592 108.572814 63.5046391L105.943221 63.2292071 105.943221 61.8188166 121.418761 61.8188166 121.63285 67.2168994 119.614301 67.2168994 118.942088 63.443929 112.395823 63.443929C112.355044 64.6709112 112.335292 65.903645 112.335292 67.1408521 112.335292 68.3774201 112.335292 69.6306036 112.335292 70.8978462L116.556531 70.8978462 116.953487 68.075787 118.48269 68.075787 118.48269 75.2536331 116.953487 75.2536331 116.586478 72.4628876 112.335292 72.4628876C112.335292 73.8943669 112.335292 75.2734438 112.335292 76.6033136 112.335292 77.9338225 112.355044 79.2413254 112.395823 80.5296568L119.553133 80.5296568 120.226619 76.7266509 122.244531 76.7266509M132.520142 71.3272899C133.315327 71.3272899 134.004106 71.219929 134.585204 71.0052071 135.166301 70.7904852 135.640354 70.499716 136.007363 70.1316213 136.374372 69.7628876 136.644531 69.323858 136.817841 68.8119763 136.990513 68.3013728 137.077805 67.7485917 137.077805 67.1555503 137.077805 65.928568 136.725451 64.9929941 136.022655 64.3488284 135.319221 63.7046627 134.202903 63.3825799 132.673699 63.3825799L130.746903 63.3825799C130.706124 64.6709112 130.686372 65.9649941 130.686372 67.2629112 130.686372 68.5621065 130.686372 69.9168994 130.686372 71.3272899L132.520142 71.3272899zM143.072283 80.7143432L143.072283 82.1247337C142.17515 82.3292308 141.299044 82.4321183 140.441416 82.4321183 139.361416 82.4321183 138.489133 82.2781065 137.827115 81.9713609 137.16446 81.6639763 136.741381 81.0613491 136.557239 80.1615621L135.547965 75.6517633C135.426265 75.1002604 135.268248 74.6458935 135.073912 74.2873846 134.880212 73.9295148 134.636177 73.6483314 134.341168 73.4438343 134.044885 73.2393373 133.687434 73.0968284 133.269451 73.0143905 132.851469 72.9332308 132.367221 72.8923314 131.817345 72.8923314L130.686372 72.8923314C130.686372 74.1806627 130.686372 75.4485444 130.686372 76.6953373 130.686372 77.9434083 130.706124 79.1806154 130.746903 80.4075976L133.407717 80.7143432 133.407717 82.1247337 124.324248 82.1247337 124.324248 80.7143432 126.953841 80.4376331C126.995257 79.1493018 127.016283 77.855858 127.016283 76.5566627 127.016283 75.2587456 127.016283 73.9454911 127.016283 72.6149822L127.016283 71.3272899C127.016283 70.0191479 127.016283 68.7148402 127.016283 67.4169231 127.016283 66.1183669 126.995257 64.8140592 126.953841 63.5046391L124.324248 63.2292071 124.324248 61.8188166 133.376496 61.8188166C135.701522 61.8188166 137.505982 62.2776568 138.789876 63.1991716 140.075681 64.1187692 140.717947 65.3770651 140.717947 66.9708639 140.717947 67.5440947 140.630655 68.1071006 140.457345 68.6586036 140.283398 69.2113846 140.008142 69.7219882 139.631575 70.1923314 139.254372 70.6633136 138.765027 71.0825325 138.164177 71.4506272 137.562053 71.8174438 136.832496 72.0947929 135.976142 72.2782012 136.853522 72.5440473 137.576708 72.9945799 138.147611 73.6272426 138.71915 74.2611834 139.147327 75.131574 139.432142 76.2345799L140.472637 80.4376331 143.072283 80.7143432z"/>
      </g>
    </g>
  </g>
</svg>
